<?xml version="1.0" encoding="UTF-8"?>
<svg version="1.1" xmlns="http://www.w3.org/2000/svg" width="1000" height="1000">
<path d="M0 0 C1.23556641 0.00064453 2.47113281 0.00128906 3.74414062 0.00195312 C12.91509736 0.04649636 12.91509736 0.04649636 16.43122578 0.68837261 C19.95924248 1.22915316 23.29562512 1.31520782 26.86479187 1.31880188 C27.5645282 1.32091759 28.26426453 1.32303331 28.98520499 1.32521313 C31.31787074 1.33117987 33.65048187 1.33021536 35.9831543 1.3293457 C37.66075227 1.33237946 39.33834942 1.33590151 41.01594543 1.33987427 C44.62375161 1.34774778 48.23154797 1.35290238 51.83936119 1.35616493 C57.55153276 1.3620909 63.26364255 1.37864681 68.9757843 1.39750671 C70.93413445 1.40384373 72.89248463 1.41016936 74.85083485 1.41648388 C75.83145472 1.41964969 76.8120746 1.4228155 77.82241023 1.42607725 C91.11523847 1.46809336 104.40803749 1.50111946 117.70092773 1.51342773 C126.67498874 1.52182229 135.64889613 1.54436358 144.62288028 1.5827834 C149.36670287 1.60249508 154.11029607 1.61496485 158.85416222 1.60994911 C163.32029124 1.60528434 167.78598597 1.61920741 172.25202751 1.64696121 C173.88414331 1.65384199 175.51630432 1.65403335 177.14841843 1.64676094 C189.39476214 1.59773629 199.55396333 2.73760069 209.03125 11.2109375 C213.13619352 16.1097616 214.1010036 20.37290893 214.0625 26.6875 C214.07023437 27.9559375 214.07796875 29.224375 214.0859375 30.53125 C213.37719732 37.03498338 210.50343251 40.93155964 205.6875 45.1875 C202.45736382 47.49474013 199.24699248 49.44985529 195.6875 51.1875 C197.24839113 52.9181191 198.81128912 54.64692827 200.375 56.375 C201.68017578 57.81939453 201.68017578 57.81939453 203.01171875 59.29296875 C205.51177741 61.99741176 208.06531072 64.60310804 210.6875 67.1875 C210.91050781 66.39601563 211.13351562 65.60453125 211.36328125 64.7890625 C213.08665232 60.10189988 215.44332128 55.91539806 217.875 51.5625 C218.95424026 49.60868855 220.03230605 47.65422801 221.109375 45.69921875 C221.97272461 44.13373291 221.97272461 44.13373291 222.85351562 42.53662109 C226.48141842 35.91154515 230.02770618 29.24247631 233.58358765 22.57855225 C234.50180414 20.85807182 235.42081495 19.1380154 236.33984375 17.41796875 C236.86570068 16.43207764 237.39155762 15.44618652 237.93334961 14.43041992 C240.15083423 10.33092817 242.4240147 6.26177354 244.6875 2.1875 C254.2575 2.1875 263.8275 2.1875 273.6875 2.1875 C280.17907157 13.3159084 286.25924559 24.64792604 292.3203125 36.015625 C298.415459 47.42085441 304.55656125 58.8014709 310.6875 70.1875 C311.0175 47.7475 311.3475 25.3075 311.6875 2.1875 C340.6875 2.1875 340.6875 2.1875 347.5625 7.1875 C348.99423325 9.14728695 350.36548152 11.15209042 351.6875 13.1875 C356.86665868 19.61955491 362.76500764 25.38498348 368.625 31.1875 C371.615625 34.1575 374.60625 37.1275 377.6875 40.1875 C378.0175 27.6475 378.3475 15.1075 378.6875 2.1875 C387.9275 2.1875 397.1675 2.1875 406.6875 2.1875 C406.6875 25.9475 406.6875 49.7075 406.6875 74.1875 C377.6875 74.1875 377.6875 74.1875 370.0703125 69.4375 C368.19106271 67.37510298 366.50558231 65.38053955 364.8125 63.1875 C363.90332551 62.14058167 362.98660599 61.10016848 362.0625 60.06640625 C359.5135617 57.17761715 357.099524 54.19174794 354.6875 51.1875 C353.46555178 49.74164102 352.23486613 48.30308104 350.9921875 46.875 C350.51507324 46.32199219 350.03795898 45.76898437 349.54638672 45.19921875 C346.68767986 42.10547768 343.66604316 39.16604316 340.6875 36.1875 C340.3575 48.7275 340.0275 61.2675 339.6875 74.1875 C331.81845005 74.41729056 323.96104317 74.61621854 316.09130859 74.73681641 C313.41422989 74.78144791 310.74249313 74.85523694 308.06591797 74.94189453 C304.21773716 75.06335586 300.37318643 75.11993741 296.5234375 75.1640625 C295.32947357 75.21567535 294.13550964 75.26728821 292.90536499 75.32046509 C289.54676419 75.32272864 286.87821693 75.24762794 283.6875 74.1875 C281.70496816 71.73907202 280.47176934 69.29270685 279.10873413 66.4593811 C277.90092856 64.08012534 277.90092856 64.08012534 275.76504517 63.25863647 C273.46209256 62.94000392 271.33078246 62.90343321 269.0078125 62.9921875 C268.19504852 62.98414093 267.38228455 62.97609436 266.54489136 62.96780396 C263.96495361 62.95287703 261.39177799 63.00661725 258.8125 63.0625 C257.05729081 63.06444304 255.3020705 63.06188629 253.546875 63.0546875 C249.25853664 63.0468799 244.97492302 63.10062277 240.6875 63.1875 C240.419375 63.88875 240.15125 64.59 239.875 65.3125 C238.6193551 68.3524824 237.18514877 71.2602774 235.6875 74.1875 C228.2680251 74.36535722 220.84910202 74.48772885 213.42797852 74.57202148 C210.90498308 74.60716882 208.38212967 74.65489722 205.85961914 74.71557617 C202.22767067 74.8007391 198.59761037 74.84024792 194.96484375 74.87109375 C193.84166245 74.90722275 192.71848114 74.94335175 191.56126404 74.98057556 C186.04201438 74.98332702 182.61609633 74.81460767 178.57714844 70.82910156 C177.58280605 69.64059741 176.61659174 68.42768041 175.6875 67.1875 C174.85863281 66.21425781 174.02976562 65.24101563 173.17578125 64.23828125 C172.45777344 63.33464844 171.73976563 62.43101562 171 61.5 C169.57917155 59.7157625 168.14262915 57.94387585 166.6875 56.1875 C166.10355469 55.43855469 165.51960937 54.68960938 164.91796875 53.91796875 C162.09271158 51.42218892 162.09271158 51.42218892 154.6875 51.1875 C154.6875 58.7775 154.6875 66.3675 154.6875 74.1875 C145.7775 74.1875 136.8675 74.1875 127.6875 74.1875 C127.6875 58.3475 127.6875 42.5075 127.6875 26.1875 C118.4475 26.1875 109.2075 26.1875 99.6875 26.1875 C99.6875 42.0275 99.6875 57.8675 99.6875 74.1875 C90.4475 74.1875 81.2075 74.1875 71.6875 74.1875 C71.6875 58.3475 71.6875 42.5075 71.6875 26.1875 C53.2075 26.1875 34.7275 26.1875 15.6875 26.1875 C15.0275 24.8675 14.3675 23.5475 13.6875 22.1875 C7.41316153 18.6324837 0.07397266 18.25334379 -6.84375 19.7265625 C-10.20219505 20.66827737 -10.20219505 20.66827737 -13.3125 22.1875 C-14.12006895 24.22645149 -14.12006895 24.22645149 -14.3125 26.1875 C-8.8497041 29.77733731 -4.39649046 30.29788209 2.0625 30.36328125 C3.29613281 30.38712891 4.52976563 30.41097656 5.80078125 30.43554688 C8.36051589 30.47799474 10.92045855 30.50952337 13.48046875 30.52929688 C22.42649046 30.72861238 33.90908963 31.17550387 40.875 37.625 C45.23866965 43.79432605 45.45180273 49.83108618 44.6875 57.1875 C43.05896968 62.83183803 39.81712047 67.22442731 34.6875 70.1875 C15.41028082 78.90019591 -9.46157398 79.30386971 -29.3125 72.1875 C-34.37938394 69.98146647 -38.78372731 67.57721761 -41.875 62.875 C-43.3125 59.1875 -43.3125 59.1875 -44.3125 50.1875 C-34.7425 50.1875 -25.1725 50.1875 -15.3125 50.1875 C-14.3225 52.1675 -13.3325 54.1475 -12.3125 56.1875 C-3.47599162 59.53927904 5.06847926 58.90060492 13.6875 55.1875 C15.04368499 54.06215895 15.04368499 54.06215895 14.75 51.125 C14.729375 50.155625 14.70875 49.18625 14.6875 48.1875 C5.8876515 45.83394224 -2.67663872 45.81174613 -11.74414062 45.70898438 C-22.61559001 45.46634451 -32.53011318 44.73324984 -40.7890625 37.1015625 C-45.04532714 31.75394796 -45.04633949 25.72784444 -44.3125 19.1875 C-42.34479642 12.55768056 -38.25717243 8.3986738 -32.3125 5.06640625 C-22.03808787 0.05763034 -11.22920925 -0.1130657 0 0 Z M154.6875 20.1875 C154.6875 24.1475 154.6875 28.1075 154.6875 32.1875 C159.25035508 32.26839106 163.81177754 32.32795647 168.375 32.375 C169.66857422 32.40013672 170.96214844 32.42527344 172.29492188 32.45117188 C173.54208984 32.46083984 174.78925781 32.47050781 176.07421875 32.48046875 C177.22108154 32.4961792 178.36794434 32.51188965 179.54956055 32.52807617 C183.05562834 32.1475452 184.92475382 31.35689194 187.6875 29.1875 C188.52083333 26.1875 188.52083333 26.1875 187.6875 23.1875 C183.84038273 20.16662705 180.88487167 19.82863189 176.07421875 19.89453125 C174.82705078 19.90419922 173.57988281 19.91386719 172.29492188 19.92382812 C171.00134766 19.94896484 169.70777344 19.97410156 168.375 20 C167.06208984 20.01353516 165.74917969 20.02707031 164.39648438 20.04101562 C161.1599805 20.07632294 157.92368794 20.13012832 154.6875 20.1875 Z M258.6875 29.1875 C256.0475 34.4675 253.4075 39.7475 250.6875 45.1875 C256.2975 45.1875 261.9075 45.1875 267.6875 45.1875 C266.20232163 40.73196488 264.99540719 37.69134813 262.625 33.8125 C262.09777344 32.93851563 261.57054687 32.06453125 261.02734375 31.1640625 C260.58519531 30.51179687 260.14304687 29.85953125 259.6875 29.1875 C259.3575 29.1875 259.0275 29.1875 258.6875 29.1875 Z " fill="#FFFFFF" transform="translate(135.3125,500.8125)"/>
<path d="M0 0 C9.24 0 18.48 0 28 0 C28.33 7.59 28.66 15.18 29 23 C34.46109547 19.87937402 37.32505283 18.00770824 41.4375 13.6875 C45.7664404 9.20861363 50.25572133 5.03390539 55 1 C55.33 0.67 55.66 0.34 56 0 C57.75049674 -0.15127075 59.50701278 -0.2334439 61.26318359 -0.28808594 C62.38880707 -0.32351501 63.51443054 -0.35894409 64.67416382 -0.39544678 C69.18213444 -0.50308812 73.69010507 -0.59197997 78.19898033 -0.65206528 C81.61599427 -0.69805126 85.02953405 -0.7649417 88.44482422 -0.88476562 C113.57541556 -1.74461903 113.57541556 -1.74461903 119.59977722 3.58270264 C121.67436042 5.89388076 123.34885151 8.37522129 125 11 C126.16344485 12.37601375 127.35032937 13.73277267 128.56640625 15.0625 C129.37682373 16.00996094 129.37682373 16.00996094 130.20361328 16.9765625 C133.92335071 21.16644885 137.95776734 25.05930126 141.9375 29 C146.4234375 33.455 146.4234375 33.455 151 38 C151.33 25.46 151.66 12.92 152 0 C161.24 0 170.48 0 180 0 C180 23.76 180 47.52 180 72 C151 72 151 72 143.3828125 67.25 C141.50356271 65.18760298 139.81808231 63.19303955 138.125 61 C137.21582551 59.95308167 136.29910599 58.91266848 135.375 57.87890625 C132.8260617 54.99011715 130.412024 52.00424794 128 49 C126.77805178 47.55414102 125.54736613 46.11558104 124.3046875 44.6875 C123.82757324 44.13449219 123.35045898 43.58148438 122.85888672 43.01171875 C120.00017986 39.91797768 116.97854316 36.97854316 114 34 C113.67 46.54 113.34 59.08 113 72 C105.25515554 72.27392588 97.52812822 72.53394722 89.78263855 72.67275238 C86.17538413 72.74101788 82.57219282 72.83193041 78.96728516 72.98071289 C53.8043028 73.99226695 53.8043028 73.99226695 47.54931641 69.26586914 C44.38117197 66.19084765 42.24413539 62.7859986 40 59 C38.35583279 56.87555104 36.62203059 54.85545546 34.875 52.8125 C34.17117187 51.93207031 33.46734375 51.05164063 32.7421875 50.14453125 C31.02838488 47.95973997 31.02838488 47.95973997 29 46 C28.67 54.58 28.34 63.16 28 72 C18.76 72 9.52 72 0 72 C0 48.24 0 24.48 0 0 Z M81.33935547 2.44946289 C80.68854004 3.1171167 80.03772461 3.78477051 79.3671875 4.47265625 C78.64273438 5.20806641 77.91828125 5.94347656 77.171875 6.70117188 C76.41390625 7.48041016 75.6559375 8.25964844 74.875 9.0625 C69.97565376 14.07788339 65.04387183 18.93691742 59.72314453 23.50610352 C57.72809737 25.23572856 55.84744671 27.05156481 54 28.9375 C53.4225 29.52402344 52.845 30.11054688 52.25 30.71484375 C51.8375 31.13894531 51.425 31.56304687 51 32 C52.48006803 35.36448454 54.39133205 37.74003645 56.875 40.4375 C58.07962891 41.75234375 58.07962891 41.75234375 59.30859375 43.09375 C60.64083984 44.53234375 60.64083984 44.53234375 62 46 C62.97027659 47.05187629 63.94032223 48.10396565 64.91015625 49.15625 C66.4256949 50.7998658 67.9421821 52.44255334 69.46166992 54.08251953 C71.97627086 56.79749832 74.47836589 59.52204868 76.953125 62.2734375 C77.41468994 62.78592041 77.87625488 63.29840332 78.35180664 63.82641602 C79.615649 65.23255903 80.87628194 66.64158476 82.13671875 68.05078125 C82.75160156 68.69402344 83.36648437 69.33726562 84 70 C84.33 70 84.66 70 85 70 C85 47.23 85 24.46 85 1 C82.88375491 0.78080706 82.88375491 0.78080706 81.33935547 2.44946289 Z " fill="#FFFFFF" transform="translate(101,425)"/>
<path d="M0 0 C9.57 0 19.14 0 29 0 C30.464375 2.949375 31.92875 5.89875 33.4375 8.9375 C38.1398728 18.37426641 43.01734985 27.70868137 48 37 C50.2731266 33.5903101 51.49112014 30.1081256 52.8203125 26.26953125 C53.08383514 25.51911057 53.34735779 24.76868988 53.61886597 23.99552917 C54.45818749 21.60254575 55.29165994 19.20757217 56.125 16.8125 C56.6936259 15.1880164 57.26263184 13.56366577 57.83203125 11.93945312 C59.22648591 7.96139514 60.61301169 3.98069886 62 0 C71.57 0 81.14 0 91 0 C95.29 12.21 99.58 24.42 104 37 C110.72502726 24.69625695 117.42786087 12.38595451 124 0 C133.57 0 143.14 0 153 0 C124.2 58.2 124.2 58.2 115 72 C112.11083984 72.34057617 112.11083984 72.34057617 108.4609375 72.29296875 C106.50800781 72.2784668 106.50800781 72.2784668 104.515625 72.26367188 C103.13541077 72.23860388 101.75520244 72.21320902 100.375 72.1875 C98.98699337 72.17245517 97.59897133 72.15876641 96.2109375 72.14648438 C92.80690491 72.1110257 89.40364378 72.06160298 86 72 C85.7326001 71.12674072 85.4652002 70.25348145 85.18969727 69.35375977 C84.19888065 66.12332289 83.20526524 62.8937752 82.2097168 59.66479492 C81.77889726 58.26540335 81.34920601 56.86566391 80.9206543 55.46557617 C80.30551642 53.45659987 79.68637072 51.44889752 79.06640625 49.44140625 C78.5086853 47.62684937 78.5086853 47.62684937 77.93969727 45.77563477 C77.26976624 43.12209485 77.26976624 43.12209485 76 42 C72.7 51.9 69.4 61.8 66 72 C56.43 72 46.86 72 37 72 C30.10865123 58.81285111 23.24126005 45.61412838 16.41619873 32.39260864 C11.92408663 23.69167468 7.39975356 15.00879388 2.79248047 6.36816406 C0 1.10592187 0 1.10592187 0 0 Z " fill="#FFFFFF" transform="translate(372,425)"/>
<path d="M0 0 C8.76066624 6.12725168 12.25301265 12.72438377 15 22.8125 C10.80088403 22.93633963 6.60274184 23.02694607 2.40234375 23.0871582 C0.97442099 23.11226347 -0.45337375 23.14635587 -1.88085938 23.18969727 C-3.93651918 23.25053678 -5.99047753 23.27874551 -8.046875 23.30078125 C-9.90070801 23.34005737 -9.90070801 23.34005737 -11.79199219 23.38012695 C-15 22.8125 -15 22.8125 -17.30249023 20.35351562 C-17.86266846 19.51498047 -18.42284668 18.67644531 -19 17.8125 C-24.53711594 14.81365532 -30.9036059 13.79822967 -37.03515625 15.31640625 C-41.77232841 16.86594854 -44.72805822 18.94565972 -48 22.8125 C-50.09316718 26.99883435 -49.42311395 32.25359613 -49 36.8125 C-47.24609641 40.65759633 -45.81831151 42.24747539 -42.375 44.625 C-34.40917336 47.42779086 -27.70872223 47.35956581 -20 43.8125 C-19.67 43.4825 -19.34 43.1525 -19 42.8125 C-25.93 42.3175 -25.93 42.3175 -33 41.8125 C-33 37.1925 -33 32.5725 -33 27.8125 C-17.16 27.8125 -1.32 27.8125 15 27.8125 C15 40.6825 15 53.5525 15 66.8125 C8.73 66.8125 2.46 66.8125 -4 66.8125 C-4.66 65.8225 -5.32 64.8325 -6 63.8125 C-6.73605469 64.08964844 -7.47210937 64.36679687 -8.23046875 64.65234375 C-9.20628906 65.01457031 -10.18210937 65.37679687 -11.1875 65.75 C-12.15042969 66.10964844 -13.11335937 66.46929688 -14.10546875 66.83984375 C-27.78762853 71.43749258 -45.29279893 70.11921597 -58.328125 64.3359375 C-69.33288784 58.83355608 -76.43233346 52.33948682 -81 40.8125 C-83.49183179 32.84183292 -82.57966843 24.10967508 -79.453125 16.48046875 C-73.16011581 4.92636855 -63.01747933 -1.59471878 -50.796875 -5.42578125 C-34.35987836 -9.9023376 -14.80998773 -8.61744888 0 0 Z " fill="#FFFFFF" transform="translate(628,508.1875)"/>
<path d="M0 0 C29 0 29 0 35.875 5 C37.30673325 6.95978695 38.67798152 8.96459042 40 11 C45.17915868 17.43205491 51.07750764 23.19748348 56.9375 29 C59.928125 31.97 62.91875 34.94 66 38 C66.33 25.46 66.66 12.92 67 0 C76.24 0 85.48 0 95 0 C95 23.76 95 47.52 95 72 C66 72 66 72 58.3828125 67.25 C56.50356271 65.18760298 54.81808231 63.19303955 53.125 61 C52.21582551 59.95308167 51.29910599 58.91266848 50.375 57.87890625 C47.8260617 54.99011715 45.412024 52.00424794 43 49 C41.77805178 47.55414102 40.54736613 46.11558104 39.3046875 44.6875 C38.82757324 44.13449219 38.35045898 43.58148438 37.85888672 43.01171875 C35.00017986 39.91797768 31.97854316 36.97854316 29 34 C28.67 46.54 28.34 59.08 28 72 C18.76 72 9.52 72 0 72 C0 48.24 0 24.48 0 0 Z " fill="#FFFFFF" transform="translate(526,425)"/>
<path d="M0 0 C15.4996875 -0.12375 15.4996875 -0.12375 31.3125 -0.25 C34.55360596 -0.28641602 37.79471191 -0.32283203 41.1340332 -0.36035156 C43.73127583 -0.3720448 46.32852585 -0.38223512 48.92578125 -0.390625 C49.58539352 -0.40107849 50.2450058 -0.41153198 50.92460632 -0.42230225 C62.84263266 -0.60144074 72.27133636 0.91208463 81.34375 9.0234375 C85.44869352 13.9222616 86.4135036 18.18540893 86.375 24.5 C86.38660156 26.40265625 86.38660156 26.40265625 86.3984375 28.34375 C85.68969732 34.84748338 82.81593251 38.74405964 78 43 C74.76986382 45.30724013 71.55949248 47.26235529 68 49 C68.61746094 49.66644531 69.23492188 50.33289063 69.87109375 51.01953125 C87 69.66057839 87 69.66057839 87 72 C82.57106883 72.17406614 78.14398753 72.30053094 73.71264648 72.38452148 C72.20806165 72.41955689 70.70371231 72.46720379 69.19995117 72.52807617 C56.77660731 73.01809206 56.77660731 73.01809206 52.57543945 70.6105957 C50.7828784 68.84511773 49.39981348 67.08591774 48 65 C47.17113281 64.02675781 46.34226562 63.05351563 45.48828125 62.05078125 C44.77027344 61.14714844 44.05226563 60.24351562 43.3125 59.3125 C41.89167155 57.5282625 40.45512915 55.75637585 39 54 C38.41605469 53.25105469 37.83210937 52.50210938 37.23046875 51.73046875 C34.40521158 49.23468892 34.40521158 49.23468892 27 49 C27 56.59 27 64.18 27 72 C18.09 72 9.18 72 0 72 C0 48.24 0 24.48 0 0 Z M27 18 C27 21.96 27 25.92 27 30 C31.56285508 30.08089106 36.12427754 30.14045647 40.6875 30.1875 C41.98107422 30.21263672 43.27464844 30.23777344 44.60742188 30.26367188 C45.85458984 30.27333984 47.10175781 30.28300781 48.38671875 30.29296875 C49.53358154 30.3086792 50.68044434 30.32438965 51.86206055 30.34057617 C55.36812834 29.9600452 57.23725382 29.16939194 60 27 C60.83333333 24 60.83333333 24 60 21 C56.15288273 17.97912705 53.19737167 17.64113189 48.38671875 17.70703125 C47.13955078 17.71669922 45.89238281 17.72636719 44.60742188 17.73632812 C43.31384766 17.76146484 42.02027344 17.78660156 40.6875 17.8125 C39.37458984 17.82603516 38.06167969 17.83957031 36.70898438 17.85351562 C33.4724805 17.88882294 30.23618794 17.94262832 27 18 Z " fill="#FFFFFF" transform="translate(730,503)"/>
<path d="M0 0 C1.23008789 0.00161133 2.46017578 0.00322266 3.72753906 0.00488281 C13.16266079 0.13167891 21.42842902 1.13625007 30.3125 4.375 C31.56160156 4.808125 31.56160156 4.808125 32.8359375 5.25 C38.04967603 7.4207759 42.04351439 11.17753124 44.3125 16.375 C44.8075 21.325 44.8075 21.325 45.3125 26.375 C35.7425 26.375 26.1725 26.375 16.3125 26.375 C15.6525 25.055 14.9925 23.735 14.3125 22.375 C8.03816153 18.8199837 0.69897266 18.44084379 -6.21875 19.9140625 C-9.57719505 20.85577737 -9.57719505 20.85577737 -12.6875 22.375 C-13.49506895 24.41395149 -13.49506895 24.41395149 -13.6875 26.375 C-8.2247041 29.96483731 -3.77149046 30.48538209 2.6875 30.55078125 C3.92113281 30.57462891 5.15476562 30.59847656 6.42578125 30.62304688 C8.98551589 30.66549474 11.54545855 30.69702337 14.10546875 30.71679688 C23.05149046 30.91611238 34.53408963 31.36300387 41.5 37.8125 C45.86366965 43.98182605 46.07680273 50.01858618 45.3125 57.375 C43.68396968 63.01933803 40.44212047 67.41192731 35.3125 70.375 C16.03528082 79.08769591 -8.83657398 79.49136971 -28.6875 72.375 C-33.75438394 70.16896647 -38.15872731 67.76471761 -41.25 63.0625 C-42.6875 59.375 -42.6875 59.375 -43.6875 50.375 C-34.1175 50.375 -24.5475 50.375 -14.6875 50.375 C-13.6975 52.355 -12.7075 54.335 -11.6875 56.375 C-2.85099162 59.72677904 5.69347926 59.08810492 14.3125 55.375 C15.66868499 54.24965895 15.66868499 54.24965895 15.375 51.3125 C15.354375 50.343125 15.33375 49.37375 15.3125 48.375 C6.5126515 46.02144224 -2.05163872 45.99924613 -11.11914062 45.89648438 C-21.99059001 45.65384451 -31.90511318 44.92074984 -40.1640625 37.2890625 C-44.42032714 31.94144796 -44.42133949 25.91534444 -43.6875 19.375 C-41.71979642 12.74518056 -37.63217243 8.5861738 -31.6875 5.25390625 C-21.6844904 0.37743907 -10.95065534 -0.01495583 0 0 Z " fill="#FFFFFF" transform="translate(862.6875,500.625)"/>
<path d="M0 0 C0.93062256 0.00563965 1.86124512 0.0112793 2.82006836 0.01708984 C9.51039475 0.13537833 15.46005454 0.70954567 21.6875 3.3125 C22.69039063 3.72628906 23.69328125 4.14007813 24.7265625 4.56640625 C35.06706603 9.2747993 42.10141729 15.84127253 46.6875 26.3125 C49.38832026 34.38033488 48.7571849 45.33791887 45.13671875 52.97265625 C38.2257306 64.13082849 28.30543414 71.05852441 15.6875 74.3125 C14.98109375 74.49554688 14.2746875 74.67859375 13.546875 74.8671875 C-2.07689634 77.30039779 -18.55159353 75.86740917 -31.99609375 67.07421875 C-39.90556309 61.05875387 -46.29851948 54.32697193 -48.3125 44.3125 C-49.14563032 35.12075075 -48.12665817 26.75994867 -42.734375 19.05859375 C-41.01858959 17.02206467 -39.22718917 15.16200826 -37.3125 13.3125 C-36.78914063 12.76851563 -36.26578125 12.22453125 -35.7265625 11.6640625 C-26.31964489 2.62424411 -12.60508774 -0.0797574 0 0 Z M-14.8125 27.75 C-17.63136061 32.56555354 -18.79192548 35.60284168 -17.84375 41.32421875 C-16.55715958 46.1394726 -14.08321417 48.75335443 -10.125 51.625 C-5.0567644 54.18068476 -0.25487585 54.97902925 5.30859375 53.71875 C10.50615866 51.92701886 14.00352998 49.87107242 16.84765625 45.09375 C18.96761808 40.59745886 18.89709985 37.3816098 17.5625 32.6875 C15.74971008 27.84255476 13.48323504 25.6167983 8.76171875 23.4140625 C0.28850023 19.93541535 -8.08212099 21.18788046 -14.8125 27.75 Z " fill="#FFFFFF" transform="translate(332.3125,423.6875)"/>
<path d="M0 0 C26.07 0 52.14 0 79 0 C79 6.27 79 12.54 79 19 C62.17 19 45.34 19 28 19 C28 21.31 28 23.62 28 26 C42.19 26 56.38 26 71 26 C71 32.27 71 38.54 71 45 C56.81 45 42.62 45 28 45 C28 47.31 28 49.62 28 52 C44.83 52 61.66 52 79 52 C79 58.27 79 64.54 79 71 C52.93 71 26.86 71 0 71 C0 47.57 0 24.14 0 0 Z " fill="#FFFFFF" transform="translate(647,503)"/>
<path d="M0 0 C4.55997519 2.57886237 8.06516606 5.98153592 9.5234375 11.1171875 C10.47589672 18.21981193 10.53027486 24.65809035 6.05078125 30.52734375 C1.37780551 35.391541 -2.31162894 36.38200552 -8.9140625 36.6796875 C-14.97723027 36.47061275 -19.06994304 35.35057376 -23.4765625 31.1171875 C-27.86107007 25.85577842 -28.15520151 21.04771874 -27.921875 14.28125 C-27.03367979 7.97038927 -24.27026479 4.61193941 -19.4765625 0.6171875 C-13.62270803 -2.23928853 -6.05521945 -2.15848517 0 0 Z M-21.4765625 9.8046875 C-23.13581287 15.30095436 -23.13581287 19.93342064 -21.4765625 25.4296875 C-18.73249615 29.11702666 -15.88665268 30.85716173 -11.4765625 32.1171875 C-6.59282741 32.40446603 -2.26264971 31.25423119 1.5234375 28.1171875 C4.85594252 23.29080092 5.23660235 18.79194213 4.5234375 13.1171875 C3.19821359 8.72738331 1.58248486 6.87251126 -2.3515625 4.7421875 C-9.67664129 1.57242613 -16.60976891 3.26493361 -21.4765625 9.8046875 Z " fill="#FFFFFF" transform="translate(658.4765625,424.8828125)"/>
<path d="M0 0 C13.32171376 -0.49339681 13.32171376 -0.49339681 16.46484375 1.79296875 C18 4 18 4 17.8125 7.5625 C17 11 17 11 16 14 C16.87914688 16.6569191 16.87914688 16.6569191 18 19 C15.36 19 12.72 19 10 19 C9.34 17.68 8.68 16.36 8 15 C7.67 16.32 7.34 17.64 7 19 C4.69 19 2.38 19 0 19 C0 12.73 0 6.46 0 0 Z M7 5 C7 5.99 7 6.98 7 8 C8.32 8 9.64 8 11 8 C10.67 7.01 10.34 6.02 10 5 C9.01 5 8.02 5 7 5 Z " fill="#FFFFFF" transform="translate(641,433)"/>
</svg>
